<svg   viewBox="0 0 24 24"  xmlns="http://www.w3.org/2000/svg">
<path fill-rule="evenodd" clip-rule="evenodd" d="M15.8174 5.40264C16.1041 3.99404 15.211 2.58574 13.9653 2.15245C13.3487 1.92173 12.7048 1.97584 12.1749 2.16176C11.648 2.34661 11.1274 2.69915 10.7966 3.20452L10.7954 3.2063L8.36416 6.89801C8.30678 6.98514 8.18336 6.98416 8.11912 6.90248C8.05135 6.81631 7.97591 6.73406 7.89209 6.65641C7.3149 6.12166 6.54195 5.99999 5.80957 5.99999H4.85718C4.1248 5.99999 3.35185 6.12166 2.77466 6.65641C2.16719 7.21919 2 8.02305 2 8.81617V18.1838C2 18.9769 2.16719 19.7808 2.77466 20.3436C3.35185 20.8783 4.1248 21 4.85718 21H5.80957C6.54195 21 7.3149 20.8783 7.89209 20.3436C7.97519 20.2666 8.05005 20.1851 8.11737 20.0997C8.22568 19.9624 8.41884 19.9207 8.55454 20.028L10.0256 21.1903C10.3788 21.5246 10.8406 21.712 11.2081 21.8191C11.618 21.9387 12.0573 22 12.4295 22H16.0131C16.8002 22 17.5793 21.7036 18.2036 21.2374C18.8178 20.7787 19.3501 20.1033 19.566 19.2674L21.8155 12.2845C22.1451 11.3303 22.0315 10.3461 21.4873 9.59224C20.9485 8.84602 20.0796 8.45044 19.1251 8.45044L15.9845 8.45042H15.5187C15.4308 8.45042 15.3637 8.36779 15.3777 8.27662L15.8174 5.40264ZM8.66675 17.4639C8.66675 17.5582 8.70894 17.6469 8.78067 17.7036L11.2104 19.6235L11.2585 19.6614L11.3016 19.7054C11.3016 19.7054 11.3335 19.7349 11.4136 19.7757C11.4923 19.8159 11.5952 19.8563 11.7178 19.8921C11.968 19.965 12.236 20 12.4295 20H16.0131C16.3576 20 16.7573 19.8632 17.0996 19.6076C17.4424 19.3516 17.6576 19.0305 17.7312 18.7297L17.7401 18.6937L17.7514 18.6584L20.0147 11.6324L20.0187 11.6201L20.0229 11.608C20.1591 11.2188 20.0827 10.9574 19.9693 10.8004C19.8479 10.6323 19.5852 10.4504 19.1251 10.4504H15.353C14.2544 10.4504 13.282 9.4767 13.4677 8.15007L13.4695 8.13675L13.9411 5.05689L13.9461 5.02461L13.953 4.99273C14.0196 4.68688 13.7947 4.19671 13.3619 4.0495L13.3455 4.04392L13.3293 4.03772C13.1964 3.98686 12.9983 3.98157 12.7785 4.05867C12.5516 4.13829 12.4127 4.26637 12.3662 4.33752L12.3642 4.34067L8.71746 9.87799C8.68444 9.92814 8.66675 9.98766 8.66675 10.0486V17.4639ZM3.90479 8.81617C3.90479 8.27609 4.02113 8.16879 4.03455 8.1564C4.07642 8.11762 4.25621 7.99999 4.85718 7.99999H5.80957C6.41054 7.99999 6.58998 8.1173 6.63185 8.15608C6.64527 8.16846 6.76196 8.27609 6.76196 8.81617V18.1838C6.76196 18.7239 6.64562 18.8312 6.6322 18.8436C6.59033 18.8823 6.41054 19 5.80957 19H4.85718C4.25621 19 4.07677 18.8827 4.0349 18.8439C4.02147 18.8315 3.90479 18.7239 3.90479 18.1838V8.81617Z" />
</svg>
