<svg width="132" height="40" viewBox="0 0 132 40" fill="none" xmlns="http://www.w3.org/2000/svg">
<path d="M48.1273 11V14.0482H41.7485V28.4H38.0115V14.0482H31.6327V11H48.1273Z" fill="#030307"/>
<path d="M54.0182 11H50.4836V28.4H54.0182V11Z" fill="#030307"/>
<path d="M67.8133 11C69.8006 11 71.3904 11.4445 72.7153 12.3971C73.9739 13.2861 74.6364 14.6832 74.6364 16.5883C74.6364 18.4299 74.0402 19.827 72.7816 20.6525C71.5229 21.5416 69.9331 21.9226 67.8796 21.9226H61.9839V28.4H58.1418V11H67.8133ZM67.4821 19.1285C68.542 19.1285 69.3369 18.938 69.9331 18.4934C70.5293 18.0489 70.7943 17.4139 70.7943 16.5883C70.7943 15.6993 70.5293 15.0642 69.9331 14.6832C69.3369 14.2387 68.542 14.0482 67.4821 14.0482H61.9839V19.192H67.4821V19.1285Z" fill="#030307"/>
<path d="M86.0751 11C88.0624 11 89.6523 11.4445 90.9771 12.3971C92.2357 13.2861 92.8982 14.6832 92.8982 16.5883C92.8982 18.4299 92.302 19.827 91.0434 20.6525C89.7848 21.5416 88.1949 21.9226 86.1414 21.9226H80.2457V28.4H76.4036V11H86.0751ZM85.7439 19.1285C86.8038 19.1285 87.5987 18.938 88.1949 18.4934C88.7911 18.0489 89.0561 17.4139 89.0561 16.5883C89.0561 15.6993 88.7911 15.0642 88.1949 14.6832C87.5987 14.2387 86.8038 14.0482 85.7439 14.0482H80.2457V19.192H85.7439V19.1285Z" fill="#030307"/>
<path d="M99.9371 25.5423H110.571V28.4H96.4327V11H110.148V13.9212H99.9371V18.1759H107.973V20.9066H99.9371V25.5423Z" fill="#030307"/>
<path d="M126.135 28.3367L120.926 21.6931H117.702V28.3367H114.105V11H123.407C125.267 11 126.755 11.4429 127.996 12.392C129.174 13.2778 129.794 14.6698 129.794 16.5047C129.794 18.0865 129.36 19.2887 128.492 20.1113C127.624 20.9338 126.445 21.5033 124.895 21.6931L130.6 28.4H126.135V28.3367ZM117.702 13.9105V18.9091H123.097C124.027 18.9091 124.833 18.7193 125.329 18.2764C125.887 17.8335 126.135 17.2007 126.135 16.4414C126.135 15.6189 125.887 14.9862 125.329 14.5433C124.771 14.1003 124.027 13.9105 123.097 13.9105H117.702Z" fill="#030307"/>
<path d="M9.15532 15.1529C9.15532 17.4386 7.33776 19.3058 5.07766 19.3058C2.83337 19.3058 1 17.4547 1 15.1529C1 12.8672 2.81756 11 5.07766 11C7.33776 11.0161 9.15532 12.8672 9.15532 15.1529Z" fill="#5F00FF"/>
<path d="M18.0377 15.1529C18.0377 17.4386 16.2201 19.3058 13.96 19.3058C11.7157 19.3058 9.88239 17.4547 9.88239 15.1529C9.88239 12.8672 11.6999 11 13.96 11C16.2201 11.0161 18.0377 12.8672 18.0377 15.1529Z" fill="#5F00FF"/>
<path d="M18.0377 24.2314C18.0377 26.5171 16.2201 28.3843 13.96 28.3843C11.7157 28.3843 9.88239 26.5332 9.88239 24.2314C9.88239 21.9457 11.6999 20.0785 13.96 20.0785C16.2201 20.0946 18.0377 21.9457 18.0377 24.2314Z" fill="#5F00FF"/>
<path d="M26.9201 15.1529C26.9201 17.4386 25.1025 19.3058 22.8424 19.3058C20.5981 19.3058 18.7648 17.4547 18.7648 15.1529C18.7648 12.8672 20.5823 11 22.8424 11C25.1025 11.0161 26.9201 12.8672 26.9201 15.1529Z" fill="#5F00FF"/>
</svg>
