<svg width="44" height="40" viewBox="0 0 44 40" fill="none" xmlns="http://www.w3.org/2000/svg">
<path d="M9.0214 32.6224V33.9101H6.42567V39.9732H4.90494V33.9101H2.3092V32.6224H9.0214Z" fill="#030307"/>
<path d="M11.6433 32.6224H10.1226V39.9732H11.6433V32.6224Z" fill="#030307"/>
<path d="M17.2018 32.6224C17.9884 32.6224 18.6177 32.8102 19.1421 33.2126C19.6402 33.5882 19.9024 34.1784 19.9024 34.9832C19.9024 35.7612 19.6665 36.3514 19.1683 36.7002C18.6701 37.0758 18.0409 37.2367 17.2281 37.2367H14.8945V39.9731H13.3738V32.6224H17.2018ZM17.0707 36.0563C17.4902 36.0563 17.8049 35.9758 18.0408 35.788C18.2768 35.6002 18.3817 35.332 18.3817 34.9832C18.3817 34.6076 18.2768 34.3393 18.0408 34.1784C17.8049 33.9906 17.4902 33.9101 17.0707 33.9101H14.8945V36.0831H17.0707V36.0563Z" fill="#030307"/>
<path d="M24.9628 32.6224C25.7494 32.6224 26.3787 32.8102 26.9031 33.2126C27.4012 33.5882 27.6634 34.1784 27.6634 34.9832C27.6634 35.7612 27.4275 36.3514 26.9293 36.7002C26.4311 37.0758 25.8018 37.2367 24.989 37.2367H22.6555V39.9731H21.1348V32.6224H24.9628ZM24.8317 36.0563C25.2512 36.0563 25.5659 35.9758 25.8018 35.788C26.0378 35.6002 26.1427 35.332 26.1427 34.9832C26.1427 34.6076 26.0378 34.3393 25.8018 34.1784C25.5659 33.9906 25.2512 33.9101 24.8317 33.9101H22.6555V36.0831H24.8317V36.0563Z" fill="#030307"/>
<path d="M30.4165 38.7659H35.0311V39.9731H28.8958V32.6224H34.8476V33.8564H30.4165V35.6539H33.9037V36.8075H30.4165V38.7659Z" fill="#030307"/>
<path d="M41.4286 39.9731L39.2262 37.1562H37.8628V39.9731H36.342V32.6224H40.275C41.0616 32.6224 41.6908 32.8102 42.2152 33.2126C42.7134 33.5882 42.9756 34.1784 42.9756 34.9564C42.9756 35.6271 42.792 36.1368 42.425 36.4856C42.0579 36.8343 41.5597 37.0758 40.9042 37.1562L43.3164 40H41.4286V39.9731ZM37.8628 33.8564V35.9758H40.1439C40.5372 35.9758 40.878 35.8953 41.0878 35.7076C41.3238 35.5198 41.4286 35.2515 41.4286 34.9295C41.4286 34.5808 41.3238 34.3125 41.0878 34.1247C40.8518 33.9369 40.5372 33.8564 40.1439 33.8564H37.8628Z" fill="#030307"/>
<path d="M14.0293 6.92153C14.0293 10.731 11.014 13.8431 7.26464 13.8431C3.54147 13.8431 0.5 10.7579 0.5 6.92153C0.5 3.112 3.51525 0 7.26464 0C11.014 0.0268276 14.0293 3.112 14.0293 6.92153Z" fill="#5F00FF"/>
<path d="M28.7646 6.92153C28.7646 10.731 25.7494 13.8431 22 13.8431C18.2768 13.8431 15.2354 10.7579 15.2354 6.92153C15.2354 3.112 18.2506 0 22 0C25.7494 0.0268276 28.7646 3.112 28.7646 6.92153Z" fill="#5F00FF"/>
<path d="M28.7646 22.0523C28.7646 25.8618 25.7494 28.9739 22 28.9739C18.2768 28.9739 15.2354 25.8887 15.2354 22.0523C15.2354 18.2428 18.2506 15.1308 22 15.1308C25.7494 15.1576 28.7646 18.2428 28.7646 22.0523Z" fill="#5F00FF"/>
<path d="M43.5 6.92153C43.5 10.731 40.4847 13.8431 36.7353 13.8431C33.0122 13.8431 29.9707 10.7579 29.9707 6.92153C29.9707 3.112 32.986 0 36.7353 0C40.4847 0.0268276 43.5 3.112 43.5 6.92153Z" fill="#5F00FF"/>
</svg>
