<svg width="44" height="40" viewBox="0 0 44 40" fill="none" xmlns="http://www.w3.org/2000/svg">
<path d="M8.71986 32.6226V33.9103H6.06376V39.9733H4.50767V33.9103H1.85156V32.6226H8.71986Z" fill="#030307"/>
<path d="M11.4018 32.6226H9.8457V39.9733H11.4018V32.6226Z" fill="#030307"/>
<path d="M17.0909 32.6226C17.8958 32.6226 18.5397 32.8103 19.0763 33.2128C19.586 33.5883 19.8543 34.1786 19.8543 34.9834C19.8543 35.7614 19.6129 36.3516 19.1031 36.7004C18.5933 37.0759 17.9494 37.2369 17.1177 37.2369H14.7299V39.9733H13.1738V32.6226H17.0909ZM16.9568 36.0565C17.386 36.0565 17.708 35.976 17.9494 35.7882C18.1909 35.6004 18.2982 35.3321 18.2982 34.9834C18.2982 34.6078 18.1909 34.3395 17.9494 34.1786C17.708 33.9908 17.386 33.9103 16.9568 33.9103H14.7299V36.0833H16.9568V36.0565Z" fill="#030307"/>
<path d="M25.0323 32.6226C25.8372 32.6226 26.4811 32.8103 27.0177 33.2128C27.5274 33.5883 27.7957 34.1786 27.7957 34.9834C27.7957 35.7614 27.5543 36.3516 27.0445 36.7004C26.5347 37.0759 25.8908 37.2369 25.0591 37.2369H22.6713V39.9733H21.1152V32.6226H25.0323ZM24.8982 36.0565C25.3274 36.0565 25.6494 35.976 25.8908 35.7882C26.1323 35.6004 26.2396 35.3321 26.2396 34.9834C26.2396 34.6078 26.1323 34.3395 25.8908 34.1786C25.6494 33.9908 25.3274 33.9103 24.8982 33.9103H22.6713V36.0833H24.8982V36.0565Z" fill="#030307"/>
<path d="M30.6127 38.7661H35.3347V39.9733H29.0566V32.6226H35.1469V33.8566H30.6127V35.6541H34.181V36.8077H30.6127V38.7661Z" fill="#030307"/>
<path d="M41.8807 39.9732L39.627 37.1563H38.2319V39.9732H36.6758V32.6224H40.7002C41.5051 32.6224 42.149 32.8102 42.6855 33.2126C43.1953 33.5882 43.4636 34.1784 43.4636 34.9564C43.4636 35.6271 43.2758 36.1369 42.9002 36.4856C42.5246 36.8344 42.0148 37.0758 41.3441 37.1563L43.8124 40H41.8807V39.9732ZM38.2319 33.8565V35.9759H40.566C40.9685 35.9759 41.3172 35.8954 41.5319 35.7076C41.7733 35.5198 41.8807 35.2515 41.8807 34.9296C41.8807 34.5808 41.7733 34.3126 41.5319 34.1248C41.2904 33.937 40.9685 33.8565 40.566 33.8565H38.2319Z" fill="#030307"/>
<path d="M13.8439 6.92153C13.8439 10.731 10.7585 13.8431 6.92196 13.8431C3.1122 13.8431 0 10.7579 0 6.92153C0 3.112 3.08537 0 6.92196 0C10.7585 0.0268276 13.8439 3.112 13.8439 6.92153Z" fill="#5F00FF"/>
<path d="M28.922 6.92153C28.922 10.731 25.8367 13.8431 22.0001 13.8431C18.1903 13.8431 15.0781 10.7579 15.0781 6.92153C15.0781 3.112 18.1635 0 22.0001 0C25.8367 0.0268276 28.922 3.112 28.922 6.92153Z" fill="#5F00FF"/>
<path d="M28.922 22.0523C28.922 25.8618 25.8367 28.9738 22.0001 28.9738C18.1903 28.9738 15.0781 25.8886 15.0781 22.0523C15.0781 18.2427 18.1635 15.1307 22.0001 15.1307C25.8367 15.1576 28.922 18.2427 28.922 22.0523Z" fill="#5F00FF"/>
<path d="M44.0002 6.92153C44.0002 10.731 40.9148 13.8431 37.0782 13.8431C33.2685 13.8431 30.1562 10.7579 30.1562 6.92153C30.1562 3.112 33.2416 0 37.0782 0C40.9148 0.0268276 44.0002 3.112 44.0002 6.92153Z" fill="#5F00FF"/>
</svg>
