<svg width="16" height="16" viewBox="0 0 16 16" fill="none" xmlns="http://www.w3.org/2000/svg">
<path d="M14.6666 8.66667C14.6666 9.40667 14.0733 10 13.3333 10H2.66665C1.93331 10 1.33331 9.40667 1.33331 8.66667C1.33331 7.92667 1.93331 7.33333 2.66665 7.33333H8.66665L10.3333 8.66667L12 7.33333H13.3333C14.0733 7.33333 14.6666 7.93333 14.6666 8.66667ZM7.99998 2C1.99998 2 1.99998 6 1.99998 6H14C14 6 14 2 7.99998 2ZM1.99998 12C1.99998 13.1067 2.89331 14 3.99998 14H12C13.1066 14 14 13.1067 14 12V11.3333H1.99998V12Z"/>
</svg>