<svg width="16" height="16" viewBox="0 0 16 16" fill="none" xmlns="http://www.w3.org/2000/svg">
<path d="M5.99998 14.6667C5.82317 14.6667 5.6536 14.5964 5.52858 14.4714C5.40355 14.3464 5.33331 14.1768 5.33331 14V12H2.66665C2.31302 12 1.97389 11.8595 1.72384 11.6095C1.47379 11.3594 1.33331 11.0203 1.33331 10.6667V2.66668C1.33331 2.31305 1.47379 1.97392 1.72384 1.72387C1.97389 1.47382 2.31302 1.33334 2.66665 1.33334H13.3333C13.6869 1.33334 14.0261 1.47382 14.2761 1.72387C14.5262 1.97392 14.6666 2.31305 14.6666 2.66668V10.6667C14.6666 11.0203 14.5262 11.3594 14.2761 11.6095C14.0261 11.8595 13.6869 12 13.3333 12H9.26665L6.79998 14.4733C6.66665 14.6 6.49998 14.6667 6.33331 14.6667H5.99998ZM6.66665 10.6667V12.72L8.71998 10.6667H13.3333V2.66668H2.66665V10.6667H6.66665ZM11.3333 7.33334H9.99998V6.00001H11.3333V7.33334ZM8.66665 7.33334H7.33331V6.00001H8.66665V7.33334ZM5.99998 7.33334H4.66665V6.00001H5.99998V7.33334Z"/>
</svg>
