<svg width="18" height="18" viewBox="0 0 18 18" fill="none" xmlns="http://www.w3.org/2000/svg">
<path d="M1 9C1 4.58172 4.58172 1 9 1C13.4183 1 17 4.58172 17 9C17 13.4183 13.4183 17 9 17C4.58172 17 1 13.4183 1 9Z" fill="#694BDB"/>
<path d="M12.5 9.5H9.5V12.5H8.5V9.5H5.5V8.5H8.5V5.5H9.5V8.5H12.5V9.5Z" fill="white"/>
<path d="M9 16.5C4.85786 16.5 1.5 13.1421 1.5 9H0.5C0.5 13.6944 4.30558 17.5 9 17.5V16.5ZM16.5 9C16.5 13.1421 13.1421 16.5 9 16.5V17.5C13.6944 17.5 17.5 13.6944 17.5 9H16.5ZM9 1.5C13.1421 1.5 16.5 4.85786 16.5 9H17.5C17.5 4.30558 13.6944 0.5 9 0.5V1.5ZM9 0.5C4.30558 0.5 0.5 4.30558 0.5 9H1.5C1.5 4.85786 4.85786 1.5 9 1.5V0.5Z" fill="white"/>
</svg>
