<svg width="17" height="16" viewBox="0 0 17 16" fill="none" xmlns="http://www.w3.org/2000/svg">
<path d="M6.20036 14.6663C6.02355 14.6663 5.85398 14.5961 5.72895 14.4711C5.60393 14.3461 5.53369 14.1765 5.53369 13.9997V11.9997H2.86702C2.5134 11.9997 2.17426 11.8592 1.92422 11.6091C1.67417 11.3591 1.53369 11.02 1.53369 10.6663V2.66634C1.53369 2.31272 1.67417 1.97358 1.92422 1.72353C2.17426 1.47348 2.5134 1.33301 2.86702 1.33301H13.5337C13.8873 1.33301 14.2265 1.47348 14.4765 1.72353C14.7265 1.97358 14.867 2.31272 14.867 2.66634V10.6663C14.867 11.02 14.7265 11.3591 14.4765 11.6091C14.2265 11.8592 13.8873 11.9997 13.5337 11.9997H9.46702L7.00036 14.473C6.86702 14.5997 6.70036 14.6663 6.53369 14.6663H6.20036ZM6.86702 10.6663V12.7197L8.92036 10.6663H13.5337V2.66634H2.86702V10.6663H6.86702ZM11.5337 7.33301H10.2004V5.99967H11.5337V7.33301ZM8.86702 7.33301H7.53369V5.99967H8.86702V7.33301ZM6.20036 7.33301H4.86702V5.99967H6.20036V7.33301Z" fill="#A1A1A5"/>
</svg>
