<svg width="12" height="12" viewBox="0 0 12 12" fill="none" xmlns="http://www.w3.org/2000/svg">
<path d="M5.16507 8.29652H2.01471" stroke="white" stroke-width="1.5" stroke-linecap="round" stroke-linejoin="round"/>
<path d="M6.56958 3.44984H9.71994" stroke="white" stroke-width="1.5" stroke-linecap="round" stroke-linejoin="round"/>
<path fill-rule="evenodd" clip-rule="evenodd" d="M4.36259 3.42313C4.36259 2.7753 3.83351 2.25 3.18102 2.25C2.52853 2.25 1.99945 2.7753 1.99945 3.42313C1.99945 4.07096 2.52853 4.59625 3.18102 4.59625C3.83351 4.59625 4.36259 4.07096 4.36259 3.42313Z" stroke="white" stroke-width="1.5" stroke-linecap="round" stroke-linejoin="round"/>
<path fill-rule="evenodd" clip-rule="evenodd" d="M9.99962 8.27713C9.99962 7.6293 9.47095 7.104 8.81845 7.104C8.16555 7.104 7.63647 7.6293 7.63647 8.27713C7.63647 8.92496 8.16555 9.45026 8.81845 9.45026C9.47095 9.45026 9.99962 8.92496 9.99962 8.27713Z" stroke="white" stroke-width="1.5" stroke-linecap="round" stroke-linejoin="round"/>
</svg>
