<svg width="18" height="18" viewBox="0 0 18 18" fill="none" xmlns="http://www.w3.org/2000/svg">
<path d="M1 9C1 4.58172 4.58172 1 9 1V1C13.4183 1 17 4.58172 17 9V9C17 13.4183 13.4183 17 9 17V17C4.58172 17 1 13.4183 1 9V9Z" fill="#F3C522"/>
<path d="M7.85295 7.91748C8.16857 8.07018 8.43719 8.37432 8.4375 8.76182C8.4375 8.76205 8.4375 8.76227 8.4375 8.7625V9.2375C8.4375 9.23773 8.4375 9.23795 8.4375 9.23818C8.43719 9.62475 8.17032 9.9293 7.85296 10.0825L7.92971 10.2499M7.85295 7.91748L6.52083 4.75H11.4792H11.6875V4.92857V5.60708L11.4792 5.60714M7.85295 7.91748L7.92971 7.75007C8.30725 7.92379 8.64583 8.28682 8.64583 8.76182V9.23818C8.64583 9.71318 8.30725 10.0762 7.92971 10.2499M7.85295 7.91748L6.52083 5.42857V4.92857H7.02083H10.9792H11.4792V5.42857V5.60714M7.92971 10.2499L7.85274 10.0826C7.84596 10.0859 7.83917 10.0891 7.83235 10.0922L7.83213 10.0923C7.3814 10.299 7.00263 10.6201 6.73563 11.0169C6.73059 11.0244 6.7256 11.0319 6.72064 11.0395C6.45307 11.4465 6.31238 11.9156 6.3125 12.3927V12.3929H6.52083M7.92971 10.2499C7.50775 10.4434 7.15154 10.7473 6.90224 11.1265C6.65293 11.5057 6.5207 11.9447 6.52083 12.3929M6.52083 12.3929L6.3125 12.3929V13.0714V13.25H6.52083H11.4792H11.6875V13.0714V12.3929L11.4792 12.3929M6.52083 12.3929V12.5714V13.0714H7.02083H10.9792H11.4792V12.5714V12.3929M11.4792 12.3929H11.6875V12.3927C11.6876 11.9156 11.5469 11.4465 11.2794 11.0395C11.2744 11.0319 11.2694 11.0244 11.2644 11.0169C10.9974 10.6201 10.6186 10.299 10.1679 10.0923L10.1671 10.092C10.1604 10.0889 10.1538 10.0858 10.1473 10.0826L10.0703 10.2499M11.4792 12.3929C11.4793 11.9447 11.3471 11.5057 11.0978 11.1265C10.8485 10.7473 10.4922 10.4434 10.0703 10.2499M10.0703 10.2499L10.147 10.0825C9.83143 9.92982 9.56281 9.62568 9.5625 9.23818C9.5625 9.23795 9.5625 9.23773 9.5625 9.2375V8.7625C9.5625 8.76227 9.5625 8.76205 9.5625 8.76182C9.56281 8.37525 9.82967 8.0707 10.147 7.91746L10.0703 7.75007M10.0703 10.2499C9.69275 10.0762 9.35417 9.71386 9.35417 9.23818V8.76182C9.35417 8.28682 9.69275 7.92379 10.0703 7.75007M10.0703 7.75007L10.1473 7.91735C10.154 7.91409 10.1608 7.91089 10.1676 7.90775L10.1679 7.90765C10.6186 7.70096 10.9974 7.3799 11.2644 6.98305C11.2694 6.97557 11.2744 6.96805 11.2794 6.96052C11.5469 6.55352 11.6876 6.08443 11.6875 5.60727V5.60714H11.4792M10.0703 7.75007C10.4922 7.5566 10.8485 7.25271 11.0978 6.87352C11.3471 6.49432 11.4793 6.05528 11.4792 5.60714M11.9792 5.60714C11.9792 5.60709 11.9792 5.60705 11.9792 5.607V5.60714ZM11.9792 12.393C11.9792 12.393 11.9792 12.3929 11.9792 12.3929L7.70049 9.80507C7.70046 9.80508 7.70043 9.8051 7.70041 9.80511C7.20427 10.0372 6.78235 10.3987 6.48444 10.8518C6.47948 10.8593 6.47456 10.8669 6.46968 10.8745C6.17698 11.329 6.02072 11.8547 6.02083 12.3928C6.02083 12.3928 6.02083 12.3928 6.02083 12.3929C6.02083 12.3929 6.02083 12.393 6.02083 12.393V13.0714V13.25H5.8125H5.10417C5.13608 13.25 5.17078 13.2619 5.19962 13.2896C5.22918 13.3179 5.25 13.361 5.25 13.4107C5.25 13.4604 5.22918 13.5035 5.19962 13.5319C5.17078 13.5595 5.13608 13.5714 5.10417 13.5714H5.8125H6.02083H6.3125H6.52083H11.4792H11.6875H11.9792H12.1875H12.8958C12.8639 13.5714 12.8292 13.5595 12.8004 13.5319C12.7708 13.5035 12.75 13.4604 12.75 13.4107C12.75 13.361 12.7708 13.3179 12.8004 13.2896C12.8292 13.2619 12.8639 13.25 12.8958 13.25H12.1875H11.9792V13.0714V12.393Z" fill="#9FA8B1" stroke="white"/>
<path d="M9 16.5C4.85786 16.5 1.5 13.1421 1.5 9H0.5C0.5 13.6944 4.30558 17.5 9 17.5V16.5ZM16.5 9C16.5 13.1421 13.1421 16.5 9 16.5V17.5C13.6944 17.5 17.5 13.6944 17.5 9H16.5ZM9 1.5C13.1421 1.5 16.5 4.85786 16.5 9H17.5C17.5 4.30558 13.6944 0.5 9 0.5V1.5ZM9 0.5C4.30558 0.5 0.5 4.30558 0.5 9H1.5C1.5 4.85786 4.85786 1.5 9 1.5V0.5Z" fill="white"/>
</svg>
