<svg width="17" height="16" viewBox="0 0 17 16" fill="none" xmlns="http://www.w3.org/2000/svg">
<path d="M14.867 8.66667C14.867 9.40667 14.2737 10 13.5337 10H2.86702C2.13369 10 1.53369 9.40667 1.53369 8.66667C1.53369 7.92667 2.13369 7.33333 2.86702 7.33333H8.86702L10.5337 8.66667L12.2004 7.33333H13.5337C14.2737 7.33333 14.867 7.93333 14.867 8.66667ZM8.20036 2C2.20036 2 2.20036 6 2.20036 6H14.2004C14.2004 6 14.2004 2 8.20036 2ZM2.20036 12C2.20036 13.1067 3.09369 14 4.20036 14H12.2004C13.307 14 14.2004 13.1067 14.2004 12V11.3333H2.20036V12Z" fill="#A1A1A5"/>
</svg>
