<svg width="56" height="56" viewBox="0 0 56 56" fill="none" xmlns="http://www.w3.org/2000/svg">
<path fill="transparent" d="M35.8543 30.7238L36.1667 30.9736L36.479 30.7238L42.1754 26.1667H46.6667C48.9789 26.1667 50.8333 28.0412 50.8333 30.3333C50.8333 32.6472 48.9805 34.5 46.6667 34.5H9.33334C7.04118 34.5 5.16667 32.6456 5.16667 30.3333C5.16667 28.0211 7.04118 26.1667 9.33334 26.1667H30.1579L35.8543 30.7238ZM7.53313 20.5C7.53474 20.4842 7.53641 20.4681 7.53818 20.4517C7.57706 20.0887 7.65543 19.5648 7.8132 18.9338C8.12888 17.6711 8.76075 15.9857 10.025 14.3C12.5362 10.9517 17.622 7.5 28 7.5C38.378 7.5 43.4638 10.9517 45.975 14.3C47.2393 15.9857 47.8711 17.6711 48.1868 18.9338C48.3446 19.5648 48.4229 20.0887 48.4618 20.4517C48.4636 20.4681 48.4653 20.4842 48.4669 20.5H7.53313ZM14 48.5C10.4028 48.5 7.50001 45.5972 7.50001 42V40.1667H48.5V42C48.5 45.5972 45.5972 48.5 42 48.5H14Z" stroke="url(#paint0_linear_560_99809)"/>
<defs>
<linearGradient id="paint0_linear_560_99809" x1="15.4794" y1="12.8277" x2="47.0763" y2="47.496" gradientUnits="userSpaceOnUse">
<stop stop-color="#5F00FF"/>
<stop offset="0.505208" stop-color="#6400F3"/>
<stop offset="0.994792" stop-color="#FA008C"/>
</linearGradient>
</defs>
</svg>
