<svg width="16" height="16" viewBox="0 0 16 16" fill="none" xmlns="http://www.w3.org/2000/svg">
<path d="M0 8C0 3.58172 3.58172 0 8 0C12.4183 0 16 3.58172 16 8C16 12.4183 12.4183 16 8 16C3.58172 16 0 12.4183 0 8Z" fill="#E24949" fill-opacity="0.1"/>
<path fill-rule="evenodd" clip-rule="evenodd" d="M8.37503 3.75C8.37503 3.54289 8.20713 3.375 8.00003 3.375C7.79292 3.375 7.62503 3.54289 7.62503 3.75V11.3446L5.23019 8.9498C5.08375 8.80335 4.84631 8.80335 4.69986 8.9498C4.55342 9.09625 4.55342 9.33368 4.69986 9.48013L7.73486 12.5151C7.80519 12.5855 7.90057 12.625 8.00003 12.625C8.09948 12.625 8.19487 12.5855 8.26519 12.5151L11.3002 9.48013C11.4466 9.33368 11.4466 9.09625 11.3002 8.9498C11.1537 8.80335 10.9163 8.80335 10.7699 8.9498L8.37503 11.3446V3.75Z" fill="#E24949"/>
</svg>
