<svg width="17" height="16" viewBox="0 0 17 16" fill="none" xmlns="http://www.w3.org/2000/svg">
<path d="M0.5 8C0.5 3.58172 4.08172 0 8.5 0C12.9183 0 16.5 3.58172 16.5 8C16.5 12.4183 12.9183 16 8.5 16C4.08172 16 0.5 12.4183 0.5 8Z" fill="#11BB8D" fill-opacity="0.1"/>
<path fill-rule="evenodd" clip-rule="evenodd" d="M8.76516 3.48483C8.69484 3.41451 8.59945 3.375 8.5 3.375C8.40054 3.375 8.30516 3.41451 8.23483 3.48483L5.19983 6.51983C5.05338 6.66628 5.05338 6.90372 5.19983 7.05016C5.34628 7.19661 5.58371 7.19661 5.73016 7.05016L8.125 4.65533V12.25C8.125 12.4571 8.29289 12.625 8.5 12.625C8.7071 12.625 8.875 12.4571 8.875 12.25V4.65533L11.2698 7.05016C11.4163 7.19661 11.6537 7.19661 11.8002 7.05016C11.9466 6.90372 11.9466 6.66628 11.8002 6.51983L8.76516 3.48483Z" fill="#11BB8D"/>
</svg>
