<svg width="17" height="16" viewBox="0 0 17 16" fill="none" xmlns="http://www.w3.org/2000/svg">
<path d="M4.91333 7.19333C5.87333 9.08 7.42 10.6267 9.30667 11.5867L10.7733 10.12C10.96 9.93333 11.22 9.88 11.4533 9.95333C12.2 10.2 13 10.3333 13.8333 10.3333C14.0101 10.3333 14.1797 10.4036 14.3047 10.5286C14.4298 10.6536 14.5 10.8232 14.5 11V13.3333C14.5 13.5101 14.4298 13.6797 14.3047 13.8047C14.1797 13.9298 14.0101 14 13.8333 14C10.8275 14 7.94487 12.806 5.81946 10.6805C3.69404 8.55513 2.5 5.67245 2.5 2.66667C2.5 2.48986 2.57024 2.32029 2.69526 2.19526C2.82029 2.07024 2.98986 2 3.16667 2H5.5C5.67681 2 5.84638 2.07024 5.9714 2.19526C6.09643 2.32029 6.16667 2.48986 6.16667 2.66667C6.16667 3.5 6.3 4.3 6.54667 5.04667C6.62 5.28 6.56667 5.54 6.38 5.72667L4.91333 7.19333Z" fill="#A1A1A5"/>
</svg>
