<svg width="24" height="24" viewBox="0 0 24 24" fill="none" xmlns="http://www.w3.org/2000/svg">
<path d="M10.5734 4.3906C11.0224 3.00864 12.9775 3.00863 13.4266 4.3906L14.3574 7.25535C14.5582 7.87338 15.1341 8.29182 15.784 8.29182H18.7961C20.2492 8.29182 20.8534 10.1512 19.6778 11.0053L17.2409 12.7759C16.7152 13.1578 16.4952 13.8349 16.696 14.4529L17.6268 17.3176C18.0759 18.6996 16.4941 19.8488 15.3186 18.9947L12.8817 17.2242C12.3559 16.8422 11.644 16.8422 11.1183 17.2242L8.68141 18.9947C7.50584 19.8488 5.92412 18.6996 6.37315 17.3177L7.30396 14.4529C7.50477 13.8349 7.28478 13.1578 6.75905 12.7759L4.32216 11.0053C3.14659 10.1512 3.75075 8.29182 5.20383 8.29182H8.216C8.86584 8.29182 9.44178 7.87338 9.64259 7.25535L10.5734 4.3906Z" fill="#E6DDF6"/>
</svg>
